<svg id="SVGRoot" width="64px" height="64px" version="1.1" viewBox="0 0 64 64" xmlns="http://www.w3.org/2000/svg">
 <path d="m32 2a30 30 0 0 0-6 0.68164v8.166a22 22 0 0 0-4.998 2.1543l-5.8047-5.8047a30 30 0 0 0-8 8l5.8047 5.8047a22 22 0 0 0-2.1543 4.998h-8.166a30 30 0 0 0-0.68164 6 30 30 0 0 0 0.68164 6h8.166a22 22 0 0 0 2.1543 4.998l-5.8047 5.8047a30 30 0 0 0 8 8l5.8047-5.8047a22 22 0 0 0 4.998 2.1543v8.166a30 30 0 0 0 6 0.68164 30 30 0 0 0 6-0.68164v-8.166a22 22 0 0 0 4.998-2.1543l5.8047 5.8047a30 30 0 0 0 8-8l-5.8047-5.8047a22 22 0 0 0 2.1543-4.998h8.166a30 30 0 0 0 0.68164-6 30 30 0 0 0-0.60938-6h-8.2305a22 22 0 0 0-2.1309-5.0293l5.8008-5.8008a30 30 0 0 0-8-8l-5.8008 5.8008a22 22 0 0 0-5.0293-2.1309v-8.2305a30 30 0 0 0-6-0.60938zm0 16a14 14 0 0 1 14 14 14 14 0 0 1-14 14 14 14 0 0 1-14-14 14 14 0 0 1 14-14z" fill="#bbb"/>
</svg>
