<svg id="SVGRoot" width="64px" height="64px" version="1.1" viewBox="0 0 64 64" xmlns="http://www.w3.org/2000/svg">
<path d="m32 1.9c-2 0.025-4 0.25-6 0.68v8.2c-0.94 0.28-1.9 0.66-2.8 1.1l6.3 6.3c0.82-0.15 1.7-0.23 2.5-0.23 7.7 0 14 6.3 14 14 0 0.86-0.083 1.7-0.23 2.5l6.4 6.4c0.41-0.93 0.77-1.9 1.1-2.8h8.2c0.43-2 0.66-4 0.68-6-0.0013-2-0.21-4-0.61-6h-8.2c-0.48-1.6-1.2-3.2-2-4.7l5.8-5.8c-2.2-3.4-5.1-6.3-8.5-8.5l-5.8 5.8c-1.5-0.85-3.1-1.5-4.7-2v-8.2c-2-0.4-4.1-0.75-6.1-0.75zm-20 4.6-5.7 5.7 45 45 5.7-5.7zm-0.34 17c-0.41 0.93-0.77 1.9-1.1 2.8h-8.2c-0.43 2-0.66 4-0.68 6 0.024 2 0.25 4 0.68 6h8.2c0.48 1.6 1.2 3.2 2 4.7l-5.8 5.8c2.2 3.4 5.1 6.3 8.5 8.5l5.8-5.8c1.5 0.85 3.1 1.5 4.7 2v8.2c2 0.43 4 0.66 6 0.68 2-0.024 4-0.25 6-0.68v-8.2c0.94-0.28 1.9-0.66 2.8-1.1l-6.4-6.4c-0.78 0.14-1.6 0.21-2.4 0.21-7.7 0-14-6.3-14-14 0-0.82 0.075-1.6 0.21-2.4z" fill="#bbb"/>
</svg>
