<svg id="SVGRoot" width="64px" height="64px" version="1.1" viewBox="0 0 64 64" xmlns="http://www.w3.org/2000/svg">
<path d="m32 2c-2 0.024-4 0.25-6 0.68v8.2c-1.6 0.48-3.2 1.2-4.7 2l-5.8-5.8c-3.4 2.2-6.3 5.1-8.5 8.5l5.8 5.8c-0.85 1.5-1.5 3.1-2 4.7h-8.2c-0.43 2-0.66 4-0.68 6 0.024 2 0.25 4 0.68 6h8.2c0.48 1.6 1.2 3.2 2 4.7l-5.8 5.8c2.2 3.4 5.1 6.3 8.5 8.5l5.8-5.8c1.5 0.85 3.1 1.5 4.7 2v8.2c2 0.43 4 0.66 6 0.68 2-0.024 4-0.25 6-0.68v-8.2c1.6-0.48 3.2-1.2 4.7-2l5.8 5.8c3.4-2.2 6.3-5.1 8.5-8.5l-5.8-5.8c0.85-1.5 1.5-3.1 2-4.7h8.2c0.43-2 0.66-4 0.68-6-0.0013-2-0.21-4-0.61-6h-8.2c-0.48-1.6-1.2-3.2-2-4.7l5.8-5.8c-2.2-3.4-5.1-6.3-8.5-8.5l-5.8 5.8c-1.5-0.85-3.1-1.5-4.7-2v-8.2c-2-0.4-4.1-0.68-6.1-0.68zm0 16c7.7 0 14 6.3 14 14s-6.3 14-14 14-14-6.3-14-14 6.3-14 14-14z" fill="#bbb"/>
</svg>
