<svg width="15" height="15" version="1.1" viewBox="0 0 15 15" xmlns="http://www.w3.org/2000/svg">
 <path d="m4.838 2.002c-2.484 0.05981-4.932 2.466-3.32 5.998h2.232l1.5-3h0.5l1.75 3.75 1.75-4.75h0.5l1.5 4h2.232c2.194-4.808-3.135-7.531-5.838-5.086-0.00135 0.00122-0.00255 0.00268-0.00391 0.00391-0.04882 0.04227-0.09524 0.08696-0.1406 0.1328-0.04538-0.04584-0.0918-0.09054-0.1406-0.1328-6.969e-4 -6.035e-4 -0.00126-0.00135-0.00195-0.00195-6.861e-4 -6.216e-4 -0.00127-0.00133-0.00195-0.00195-0.7174-0.649-1.62-0.9337-2.518-0.9121zm4.662 4.248-1.75 4.75h-0.5l-1.75-3.75-0.75 1.75h-2.75c1.002 1.459 2.912 3.316 5.5 5 2.588-1.683 5.5-5 5.5-5h-2.5z" fill="#bbb"/>
</svg>
