<svg id="SVGRoot" width="64px" height="64px" version="1.1" viewBox="0 0 64 64" xmlns="http://www.w3.org/2000/svg">
<path d="m12.2 6.54-5.66 5.66 45.3 45.3 5.66-5.66-45.3-45.3zm19.8 3.96a33 33 0 0 0-11 1.97l6.35 6.35a14 14 0 0 1 4.7-0.818 14 14 0 0 1 14 14 14 14 0 0 1-0.818 4.7l8.53 8.53a33 33 0 0 0 9.15-13.3 33 33 0 0 0-30.9-21.4zm-21.7 8.25a33 33 0 0 0-9.13 13.2 33 33 0 0 0 30.8 21.5 33 33 0 0 0 11.1-1.98l-6.34-6.34a14 14 0 0 1-4.7 0.818 14 14 0 0 1-14-14 14 14 0 0 1 0.818-4.7l-8.55-8.55zm22.2 5.27 7.47 7.47a8 8 0 0 0-7.47-7.47zm-8.44 8.53a8 8 0 0 0 7.39 7.39l-7.39-7.39z" fill="#bbb"/>
</svg>
